# xmcd
#
# Track frame offsets:
#	150
#	15364
#	45769
#	64111
#	78870
#	98336
#	126783
#	151904
#	179468
#	197794
#	229295
#	258698
#	282109
#	307999
#
# Disc length: 4573 seconds
#
# Revision: 0
# Processed by: cddbd v1.5.1PL2 Copyright (c) Steve Scherf et al.
# Submitted via: audiograbber 1.83.01
#
DISCID=a711db0e
DTITLE=Chuck Beattie And Blues By Design - Double Live
DYEAR=2005
DGENRE=Blues
TTITLE0=Things Ain't the Way They Used to Be  
TTITLE1=Long Distance Call
TTITLE2=She Caught The Katy
TTITLE3=The Thrill is Gone
TTITLE4=Messin'  With The Kid
TTITLE5=Willow Tree 
TTITLE6=Nadine
TTITLE7=Things Ain't the Way They Used to Be (reprise) 
TTITLE8=634-5789 
TTITLE9=One Way Out
TTITLE10=Death Letter 
TTITLE11=Baby What You Want Me To Do 
TTITLE12=That Same Thing
TTITLE13=Ain't No Sunshine
EXTD=Recorded Live in 2003 \nSongs 1-7      Downtown After Five \nSongs 8-14   
EXTD=Asheville Pizza Company\n\nThanks to the great musicians that helped on t
EXTD=hese gigs:\n                              Doyle Shelton - Sammy the Slide 
EXTD=\n                              Mike Mills      - 2x (Times]\n         
EXTD=           Jim Lanstra     - ZZ\n                              K
EXTD=arl Dunlap    - KaTim\n                              Dave Hinton    - Engl
EXTD=ish Dave\n                              Rob Grace      - Kangolman\n      
EXTD=              Chuck Beattie  - Dr Blues\n                       
EXTD=Doug Wadsworth - Mr D.\nExecutive Producer - Chuck Beattie\nRecorde
EXTD=d, Produced and Engineered by Mark Miller and Doyle Shelton\nfor Wheresvil
EXTD=le Records -- http://hometown.aol.com/wheresvillesound/home.html\ne-mail w
EXTD=heresvillesound\n\nChuck Beattie ( Dr. Blues]\n\nChuckBeattie.com
EXTT0=Downtown After Five songs 1-7
EXTT1=
EXTT2=
EXTT3=
EXTT4=
EXTT5=featuring Karl Dunlap
EXTT6=featuring Karl Dunlap
EXTT7=
EXTT8=
EXTT9=
EXTT10=
EXTT11=
EXTT12=
EXTT13=
PLAYORDER=
